#!OML:ASF G:\JayActor3\Patient Classification 1\Patient 1\Session 6\male.ASF
:FULLY-SPECIFIED
:DEGREES
1462
root 2.76999 16.2006 -20.1142 178.145 -36.1525 -180.438
lowerback -1.38836 0.484255 1.32035
upperback 7.21528 0.183238 0.850818
thorax 8.34346 0.0064053 0.151859
lowerneck 0.0342212 8.04804 8.09749
upperneck -5.15539 10.5437 -7.30107
head -0.775944 5.20832 -3.7742
rclavicle -5.02925e-014 9.54166e-015
rhumerus -41.8892 4.80343 -90.5179
rradius 111.943
rwrist -27.8935
rhand -29.4533 -20.9508
rfingers 7.12502
rthumb -2.78952 -50.9123
lclavicle -5.02925e-014 9.54166e-015
lhumerus -30.9788 9.97468 78.044
lradius 29.7429
lwrist 27.7974
lhand -13.7567 11.8665
lfingers 7.12502
lthumb 12.3637 41.4809
rfemur -25.1855 -6.18118 15.079
rtibia 48.2208
rfoot -22.2132 -11.7924
rtoes -12.2328
lfemur 1.88882 11.5838 -23.9274
ltibia 22.0795
lfoot -24.1626 23.2683
ltoes 1.63093
1463
root 2.7668 16.1968 -20.1442 178.231 -35.8452 -180.468
lowerback -1.53213 0.434972 1.28898
upperback 7.1961 0.116831 0.878929
thorax 8.40639 -0.0282025 0.193854
lowerneck -0.0722353 8.07356 8.08193
upperneck -5.02923 10.5739 -7.32823
head -0.713042 5.22374 -3.76955
rclavicle 5.31749e-014 -7.95139e-016
rhumerus -41.9014 4.28297 -90.1162
rradius 111.963
rwrist -27.5817
rhand -29.8221 -20.9866
rfingers 7.12502
rthumb -3.14568 -50.9432
lclavicle 5.31749e-014 -7.95139e-016
lhumerus -30.8345 9.68154 77.9764
lradius 30.5302
lwrist 28.2559
lhand -13.7533 11.837
lfingers 7.12502
lthumb 12.367 41.4512
rfemur -25.2643 -6.06767 15.203
rtibia 47.9876
rfoot -21.9833 -11.6097
rtoes -11.5858
lfemur 1.96945 11.5645 -23.929
ltibia 22.0274
lfoot -24.3656 23.4582
ltoes 1.81013
1464
root 2.76547 16.1921 -20.1746 178.293 -35.5594 -180.489
lowerback -1.66378 0.38702 1.26246
upperback 7.19418 0.0507878 0.899557
thorax 8.48131 -0.062631 0.225012
lowerneck -0.131472 8.09164 8.06664
upperneck -4.94918 10.5964 -7.34024
head -0.67495 5.23531 -3.76424
rclavicle -1.78906e-015 -1.47101e-014
rhumerus -41.881 3.75936 -89.7569
rradius 111.965
rwrist -27.2594
rhand -30.2194 -21.0319
rfingers 7.12502
rthumb -3.52933 -50.9825
lclavicle -1.78906e-015 -1.47101e-014
lhumerus -30.6776 9.36614 77.9037
lradius 31.3468
lwrist 28.6522
lhand -13.7583 11.8141
lfingers 7.12502
lthumb 12.3621 41.4286
rfemur -25.2999 -5.96038 15.3371
rtibia 47.7933
rfoot -21.8031 -11.5999
rtoes -10.5975
lfemur 2.05724 11.5535 -23.9096
ltibia 21.996
lfoot -24.569 23.6244
ltoes 1.97953
1465
root 2.76538 16.1866 -20.2059 178.338 -35.2936 -180.531
lowerback -1.78361 0.341482 1.22451
upperback 7.21263 -0.0118649 0.903319
thorax 8.57169 -0.0961442 0.244838
lowerneck -0.130482 8.10167 8.05375
upperneck -4.92211 10.611 -7.33787
head -0.666 5.24315 -3.75983
rclavicle 8.3589e-014 -1.39149e-014
rhumerus -41.8383 3.24178 -89.4463
rradius 111.952
rwrist -26.9316
rhand -30.6588 -21.0781
rfingers 7.12502
rthumb -3.95363 -51.0211
lclavicle 8.3589e-014 -1.39149e-014
lhumerus -30.5074 9.02344 77.8282
lradius 32.1901
lwrist 29.0079
lhand -13.792 11.7956
lfingers 7.12502
lthumb 12.3297 41.412
rfemur -25.2827 -5.86138 15.4481
rtibia 47.6455
rfoot -21.6855 -11.7351
rtoes -9.34626
lfemur 2.17807 11.5553 -23.8945
ltibia 21.9617
lfoot -24.7619 23.7695
ltoes 2.13537
1466
root 2.7668 16.1807 -20.2377 178.364 -35.0544 -180.584
lowerback -1.89184 0.298836 1.18457
upperback 7.25096 -0.0709542 0.890011
thorax 8.67718 -0.127996 0.247829
lowerneck -0.0766024 8.10268 8.05547
upperneck -4.94162 10.6163 -7.32486
head -0.682053 5.24631 -3.75922
rclavicle 4.23411e-014 -7.95139e-016
rhumerus -41.7718 2.73335 -89.195
rradius 111.922
rwrist -26.5963
rhand -31.1444 -21.1267
rfingers 7.12502
rthumb -4.42261 -51.0605
lclavicle 4.23411e-014 -7.95139e-016
lhumerus -30.3093 8.6542 77.7444
lradius 33.0479
lwrist 29.3208
lhand -13.7879 11.8076
lfingers 7.12502
lthumb 12.3336 41.4238
rfemur -25.2198 -5.76165 15.5458
rtibia 47.5395
rfoot -21.6338 -11.9433
rtoes -7.99357
lfemur 2.32709 11.5553 -23.8765
ltibia 21.9171
lfoot -24.9407 23.8972
ltoes 2.29395
1467
root 2.76926 16.174 -20.2703 178.4 -34.8536 -180.705
lowerback -1.98865 0.255288 1.10338
upperback 7.30931 -0.127474 0.844307
thorax 8.79786 -0.160651 0.239666
lowerneck 0.0483943 8.09302 8.0766
upperneck -5.01462 10.6111 -7.30614
head -0.728102 5.24455 -3.76628
rclavicle -1.10822e-013 2.10712e-014
rhumerus -41.6885 2.2374 -89.0068
rradius 111.877
rwrist -26.2314
rhand -31.655 -21.2014
rfingers 7.12502
rthumb -4.91556 -51.1244
lclavicle -1.10822e-013 2.10712e-014
lhumerus -30.0809 8.26653 77.6481
lradius 33.9119
lwrist 29.6274
lhand -13.729 11.8725
lfingers 7.12502
lthumb 12.3904 41.4853
rfemur -25.1118 -5.68129 15.5731
rtibia 47.4747
rfoot -21.6141 -12.1518
rtoes -6.73606
lfemur 2.52024 11.5636 -23.9039
ltibia 21.8488
lfoot -25.091 23.9965
ltoes 2.43399
1468
root 2.77277 16.1671 -20.3032 178.419 -34.6798 -180.843
lowerback -2.07971 0.216248 1.02406
upperback 7.39065 -0.178558 0.779494
thorax 8.94066 -0.190508 0.210426
lowerneck 0.234984 8.07308 8.11995
upperneck -5.13362 10.5957 -7.29006
head -0.799459 5.23783 -3.78364
rclavicle 8.94531e-014 -2.90226e-014
rhumerus -41.5826 1.76389 -88.8829
rradius 111.82
rwrist -25.8416
rhand -32.1883 -21.2954
rfingers 7.12502
rthumb -5.43058 -51.2058
lclavicle 8.94531e-014 -2.90226e-014
lhumerus -29.8046 7.87011 77.5463
lradius 34.75
lwrist 29.8909
lhand -13.6515 11.8891
lfingers 7.12502
lthumb 12.4652 41.4974
rfemur -24.9634 -5.58548 15.5778
rtibia 47.4341
rfoot -21.6326 -12.2985
rtoes -5.65149
lfemur 2.74012 11.5586 -23.939
ltibia 21.7747
lfoot -25.2256 24.0914
ltoes 2.56604
1469
root 2.77726 16.16 -20.3366 178.429 -34.5325 -181.011
lowerback -2.16273 0.180916 0.930282
upperback 7.48866 -0.223707 0.698353
thorax 9.09729 -0.218448 0.172181
lowerneck 0.499585 8.03988 8.16712
upperneck -5.29928 10.5676 -7.26913
head -0.901018 5.22541 -3.80658
rclavicle 5.04913e-014 -1.66979e-014
rhumerus -41.4685 1.32236 -88.8158
rradius 111.754
rwrist -25.412
rhand -32.6966 -21.4336
rfingers 7.12502
rthumb -5.9213 -51.3309
lclavicle 5.04913e-014 -1.66979e-014
lhumerus -29.4919 7.48253 77.4456
lradius 35.5545
lwrist 30.1259
lhand -13.5881 11.8581
lfingers 7.12502
lthumb 12.5263 41.4627
rfemur -24.7803 -5.47156 15.5501
rtibia 47.4075
rfoot -21.6606 -12.3857
rtoes -4.79617
lfemur 2.98237 11.5445 -23.992
ltibia 21.7046
lfoot -25.3493 24.1782
ltoes 2.68738
1470
root 2.78366 16.1533 -20.3699 178.421 -34.4046 -181.14
lowerback -2.23943 0.148846 0.862257
upperback 7.58173 -0.266323 0.625928
thorax 9.24515 -0.243706 0.128651
lowerneck 0.840344 7.99529 8.21939
upperneck -5.48687 10.5305 -7.2521
head -1.02374 5.20955 -3.83739
rclavicle 4.91992e-014 -1.70955e-014
rhumerus -41.3548 0.927497 -88.7974
rradius 111.674
rwrist -24.9518
rhand -33.1998 -21.5951
rfingers 7.12502
rthumb -6.40709 -51.4782
lclavicle 4.91992e-014 -1.70955e-014
lhumerus -29.1574 7.12041 77.3551
lradius 36.3114
lwrist 30.334
lhand -13.5872 11.7551
lfingers 7.12502
lthumb 12.5272 41.3595
rfemur -24.5967 -5.30395 15.5621
rtibia 47.3755
rfoot -21.7175 -12.4404
rtoes -4.02618
lfemur 3.19315 11.5107 -24.0082
ltibia 21.6647
lfoot -25.4722 24.2627
ltoes 2.81484
1471
root 2.79147 16.1468 -20.4036 178.394 -34.29 -181.249
lowerback -2.3133 0.122983 0.805419
upperback 7.67666 -0.30209 0.56098
thorax 9.39378 -0.265318 0.0871379
lowerneck 1.24961 7.93906 8.27259
upperneck -5.68967 10.4837 -7.24111
head -1.16448 5.18991 -3.87554
rclavicle 8.15017e-014 -1.86858e-014
rhumerus -41.2339 0.578525 -88.8148
rradius 111.574
rwrist -24.4608
rhand -33.6174 -21.7506
rfingers 7.12502
rthumb -6.8102 -51.6211
lclavicle 8.15017e-014 -1.86858e-014
lhumerus -28.7962 6.78638 77.2867
lradius 37.0121
lwrist 30.5048
lhand -13.7339 11.5652
lfingers 7.12502
lthumb 12.3857 41.1783
rfemur -24.4022 -5.08901 15.596
rtibia 47.3362
rfoot -21.8044 -12.5011
rtoes -3.25192
lfemur 3.38796 11.4732 -23.9999
ltibia 21.6579
lfoot -25.5947 24.3419
ltoes 2.93243
1472
root 2.80056 16.1405 -20.4376 178.34 -34.1906 -181.322
lowerback -2.37701 0.101133 0.766988
upperback 7.76772 -0.334729 0.511748
thorax 9.53246 -0.284806 0.0520764
lowerneck 1.72093 7.87411 8.32875
upperneck -5.89404 10.4315 -7.23389
head -1.31756 5.16857 -3.91977
rclavicle -4.19436e-014 1.15295e-014
rhumerus -41.1045 0.280747 -88.8614
rradius 111.452
rwrist -23.9539
rhand -33.981 -21.9057
rfingers 7.12502
rthumb -7.16127 -51.7645
lclavicle -4.19436e-014 1.15295e-014
lhumerus -28.4193 6.49556 77.2426
lradius 37.6514
lwrist 30.6339
lhand -13.9958 11.324
lfingers 7.12502
lthumb 12.1332 40.9522
rfemur -24.1956 -4.83478 15.6696
rtibia 47.2847
rfoot -21.9209 -12.632
rtoes -2.46439
lfemur 3.56459 11.4285 -23.9521
ltibia 21.6914
lfoot -25.7255 24.4122
ltoes 3.04442
1473
root 2.81019 16.1338 -20.4724 178.282 -34.1051 -181.403
lowerback -2.43993 0.0810311 0.715775
upperback 7.85619 -0.364213 0.468611
thorax 9.66815 -0.30396 0.0307597
lowerneck 2.24868 7.80029 8.38496
upperneck -6.09324 10.3731 -7.23487
head -1.47996 5.14536 -3.97061
rclavicle -5.66536e-015 4.77083e-015
rhumerus -40.9686 0.041353 -88.9293
rradius 111.306
rwrist -23.4376
rhand -34.2756 -22.0567
rfingers 7.12502
rthumb -7.44561 -51.9057
lclavicle -5.66536e-015 4.77083e-015
lhumerus -28.0354 6.25231 77.2256
lradius 38.2364
lwrist 30.7565
lhand -14.3676 11.0782
lfingers 7.12502
lthumb 11.7746 40.7272
rfemur -23.9791 -4.56737 15.7376
rtibia 47.234
rfoot -22.0615 -12.8256
rtoes -1.60492
lfemur 3.74358 11.3947 -23.9018
ltibia 21.7414
lfoot -25.8518 24.4637
ltoes 3.14124
1474
root 2.81991 16.1272 -20.508 178.211 -34.0373 -181.471
lowerback -2.50843 0.0622741 0.670732
upperback 7.94385 -0.393098 0.436422
thorax 9.80664 -0.32286 0.0174597
lowerneck 2.80509 7.7203 8.44222
upperneck -6.27287 10.3105 -7.23973
head -1.64218 5.12079 -4.02453
rclavicle 2.85256e-014 6.36111e-015
rhumerus -40.8248 -0.144235 -89.0099
rradius 111.141
rwrist -22.9245
rhand -34.506 -22.1847
rfingers 7.12502
rthumb -7.66797 -52.0256
lclavicle 2.85256e-014 6.36111e-015
lhumerus -27.6452 6.05526 77.235
lradius 38.7677
lwrist 30.8822
lhand -14.7387 10.8672
lfingers 7.12502
lthumb 11.4167 40.5364
rfemur -23.7551 -4.30162 15.8201
rtibia 47.1886
rfoot -22.2121 -13.0529
rtoes -0.673597
lfemur 3.93037 11.3599 -23.832
ltibia 21.7937
lfoot -25.9731 24.4992
ltoes 3.23259
1475
root 2.82923 16.1205 -20.5447 178.153 -33.9987 -181.574
lowerback -2.57947 0.0384065 0.596146
upperback 8.02807 -0.425916 0.403192
thorax 9.94317 -0.345806 0.0189761
lowerneck 3.37877 7.63547 8.49375
upperneck -6.428 10.2445 -7.24349
head -1.80112 5.0951 -4.07763
rclavicle 1.66383e-013 -3.18055e-014
rhumerus -40.6825 -0.273344 -89.0998
rradius 110.968
rwrist -22.4284
rhand -34.7006 -22.3087
rfingers 7.12502
rthumb -7.85581 -52.1428
lclavicle 1.66383e-013 -3.18055e-014
lhumerus -27.2628 5.90267 77.2666
lradius 39.2574
lwrist 31.0702
lhand -15.0414 10.731
lfingers 7.12502
lthumb 11.1248 40.4161
rfemur -23.5266 -4.06807 15.8682
rtibia 47.1628
rfoot -22.3504 -13.2805
rtoes 0.334903
lfemur 4.14147 11.3315 -23.7835
ltibia 21.827
lfoot -26.0734 24.5072
ltoes 3.2984
1476
root 2.83806 16.1142 -20.5823 178.092 -33.9789 -181.679
lowerback -2.66514 0.0162456 0.525514
upperback 8.12174 -0.45759 0.37114
thorax 10.0994 -0.368275 0.0192602
lowerneck 3.92524 7.54837 8.54398
upperneck -6.55085 10.1749 -7.24623
head -1.94578 5.06739 -4.12752
rclavicle 2.5345e-014 -7.55382e-015
rhumerus -40.5301 -0.358665 -89.2001
rradius 110.8
rwrist -21.9626
rhand -34.8419 -22.4127
rfingers 7.12502
rthumb -7.99221 -52.2416
lclavicle 2.5345e-014 -7.55382e-015
lhumerus -26.8695 5.76524 77.3231
lradius 39.7105
lwrist 31.3274
lhand -15.2767 10.6576
lfingers 7.12502
lthumb 10.8978 40.3548
rfemur -23.2972 -3.85833 15.9137
rtibia 47.1576
rfoot -22.4723 -13.5041
rtoes 1.331
lfemur 4.37463 11.3021 -23.7298
ltibia 21.8411
lfoot -26.155 24.5001
ltoes 3.33952
